<svg version="1.1" id="Layer_1" xmlns="http://www.w3.org/2000/svg" xmlns:xlink="http://www.w3.org/1999/xlink" x="0px" y="0px"
	 width="100%" viewBox="0 0 340 340" enable-background="new 0 0 340 340" xml:space="preserve">
<path fill="#111113" opacity="1.000000" stroke="none" 
	d="
M220.000000,341.000000 
	C146.666687,341.000000 73.833359,341.000000 1.000029,341.000000 
	C1.000020,227.666702 1.000020,114.333397 1.000010,1.000075 
	C114.333282,1.000050 227.666565,1.000050 340.999878,1.000025 
	C340.999939,114.333260 340.999939,227.666519 340.999969,340.999878 
	C300.833344,341.000000 260.666656,341.000000 220.000000,341.000000 
M105.537933,79.740059 
	C104.745766,78.489998 104.000313,76.181786 103.154625,76.144463 
	C81.416275,75.184975 64.202591,90.462006 62.177021,109.681557 
	C60.960346,121.225952 61.658279,132.964600 61.309437,144.610352 
	C61.019733,154.281906 55.710922,160.699509 47.286140,164.718109 
	C44.946194,165.834259 42.287163,166.281464 39.831306,167.018524 
	C39.831306,171.058823 39.831306,174.868607 39.831306,178.665482 
	C58.047199,183.002502 62.147350,194.084122 61.583374,208.314743 
	C61.162312,218.939117 61.293816,229.655151 62.180622,240.246521 
	C63.824039,259.874268 83.026070,276.639984 101.964874,275.614349 
	C101.964874,271.681763 101.964874,267.745209 101.964874,263.915863 
	C101.449066,263.656342 101.159447,263.385925 100.864738,263.380280 
	C86.106186,263.096802 73.050667,249.562485 73.920204,232.209686 
	C74.428009,222.075806 74.107674,211.893555 73.963936,201.735855 
	C73.828300,192.150528 70.267250,183.927872 63.409946,177.188553 
	C61.918987,175.723236 60.327595,174.360123 58.664566,172.842346 
	C69.943825,164.133224 74.616676,152.869522 74.074638,139.094315 
	C73.754044,130.946518 73.865707,122.770126 74.093430,114.615265 
	C74.370270,104.701057 78.694496,96.700096 87.632866,92.346970 
	C92.964958,89.750160 99.153038,88.910965 105.536713,87.118713 
	C105.536713,85.586372 105.536713,83.118263 105.537933,79.740059 
M257.944092,258.603699 
	C252.927277,260.569855 247.910461,262.536011 242.375977,264.705048 
	C242.375977,267.719452 242.375977,271.635315 242.375977,275.538452 
	C260.589355,276.902740 280.416656,260.368622 281.948486,241.791016 
	C282.972351,229.373871 282.730164,216.841873 282.796051,204.359909 
	C282.840210,195.994858 285.485565,188.807678 292.302734,183.942001 
	C295.950806,181.338211 300.529633,180.038574 304.795349,178.101868 
	C304.795349,174.673126 304.795349,170.883026 304.795349,167.135040 
	C287.094635,161.528717 282.889587,155.749863 282.854309,137.080399 
	C282.841736,130.415878 283.002716,123.747177 282.816925,117.087860 
	C282.597412,109.219162 281.443481,101.624947 277.018677,94.709450 
	C268.564056,81.495705 252.869385,73.774689 239.506317,76.622131 
	C239.506317,80.532494 239.506317,84.416229 239.506317,88.570709 
	C241.184433,88.570709 242.505249,88.496292 243.815598,88.582001 
	C260.372864,89.664986 270.237366,100.038696 270.460724,116.729149 
	C270.569946,124.891586 270.518524,133.057236 270.451935,141.220718 
	C270.352448,153.416199 274.355988,163.716934 284.106384,171.456299 
	C284.676849,171.909119 285.038971,172.624390 285.492584,173.210510 
	C274.433777,182.367355 270.538483,190.564407 270.483246,204.617096 
	C270.446564,213.947250 270.502716,223.277817 270.459564,232.607910 
	C270.411713,242.946640 267.412048,251.939407 257.944092,258.603699 
M147.960632,206.447418 
	C150.279404,204.298431 152.598450,202.149734 154.916916,200.000427 
	C166.270050,189.475601 178.519440,189.480133 189.904007,200.052841 
	C198.315796,207.864746 206.666824,215.742355 215.115875,223.513519 
	C216.268356,224.573517 217.798676,225.815201 219.212875,225.892197 
	C224.421860,226.175766 229.655609,226.004807 236.387985,226.004807 
	C221.335770,212.176331 207.810394,198.926437 193.375488,186.755249 
	C182.235825,177.362549 163.045151,177.135986 151.874878,186.416229 
	C137.124176,198.671036 123.359886,212.113190 108.113861,226.008987 
	C113.559891,226.008987 117.509193,225.753632 121.409790,226.080170 
	C125.382446,226.412720 128.274399,225.164078 131.077087,222.314987 
	C136.322922,216.982300 141.963486,212.037903 147.960632,206.447418 
M135.160187,133.346756 
	C128.645325,123.827026 119.061378,125.912582 108.984543,126.213242 
	C121.297585,137.736816 132.968170,148.605347 144.578568,159.537781 
	C161.700760,175.660141 182.599442,175.832642 199.845032,159.853638 
	C210.594589,149.893585 221.237411,139.818375 231.976868,129.847336 
	C233.089142,128.814667 234.534103,128.140305 235.824707,127.299690 
	C235.422348,126.863724 235.019989,126.427765 234.617630,125.991806 
	C230.808212,125.991806 226.971588,126.276451 223.196640,125.915718 
	C219.006256,125.515297 216.061722,127.026207 213.111252,129.912552 
	C205.137848,137.712662 196.982056,145.338135 188.668747,152.775940 
	C178.583191,161.799347 165.197235,161.513794 155.319321,152.320969 
	C148.736282,146.194534 142.216690,139.999908 135.160187,133.346756 
z"/>
<path fill="#F8F8F8" opacity="1.000000" stroke="none" 
	d="
M105.537323,80.195099 
	C105.536713,83.118263 105.536713,85.586372 105.536713,87.118713 
	C99.153038,88.910965 92.964958,89.750160 87.632866,92.346970 
	C78.694496,96.700096 74.370270,104.701057 74.093430,114.615265 
	C73.865707,122.770126 73.754044,130.946518 74.074638,139.094315 
	C74.616676,152.869522 69.943825,164.133224 58.664566,172.842346 
	C60.327595,174.360123 61.918987,175.723236 63.409946,177.188553 
	C70.267250,183.927872 73.828300,192.150528 73.963936,201.735855 
	C74.107674,211.893555 74.428009,222.075806 73.920204,232.209686 
	C73.050667,249.562485 86.106186,263.096802 100.864738,263.380280 
	C101.159447,263.385925 101.449066,263.656342 101.964874,263.915863 
	C101.964874,267.745209 101.964874,271.681763 101.964874,275.614349 
	C83.026070,276.639984 63.824039,259.874268 62.180622,240.246521 
	C61.293816,229.655151 61.162312,218.939117 61.583374,208.314743 
	C62.147350,194.084122 58.047199,183.002502 39.831306,178.665482 
	C39.831306,174.868607 39.831306,171.058823 39.831306,167.018524 
	C42.287163,166.281464 44.946194,165.834259 47.286140,164.718109 
	C55.710922,160.699509 61.019733,154.281906 61.309437,144.610352 
	C61.658279,132.964600 60.960346,121.225952 62.177021,109.681557 
	C64.202591,90.462006 81.416275,75.184975 103.154625,76.144463 
	C104.000313,76.181786 104.745766,78.489998 105.537323,80.195099 
z"/>
<path fill="#F7F7F7" opacity="1.000000" stroke="none" 
	d="
M258.243774,258.393066 
	C267.412048,251.939407 270.411713,242.946640 270.459564,232.607910 
	C270.502716,223.277817 270.446564,213.947250 270.483246,204.617096 
	C270.538483,190.564407 274.433777,182.367355 285.492584,173.210510 
	C285.038971,172.624390 284.676849,171.909119 284.106384,171.456299 
	C274.355988,163.716934 270.352448,153.416199 270.451935,141.220718 
	C270.518524,133.057236 270.569946,124.891586 270.460724,116.729149 
	C270.237366,100.038696 260.372864,89.664986 243.815598,88.582001 
	C242.505249,88.496292 241.184433,88.570709 239.506317,88.570709 
	C239.506317,84.416229 239.506317,80.532494 239.506317,76.622131 
	C252.869385,73.774689 268.564056,81.495705 277.018677,94.709450 
	C281.443481,101.624947 282.597412,109.219162 282.816925,117.087860 
	C283.002716,123.747177 282.841736,130.415878 282.854309,137.080399 
	C282.889587,155.749863 287.094635,161.528717 304.795349,167.135040 
	C304.795349,170.883026 304.795349,174.673126 304.795349,178.101868 
	C300.529633,180.038574 295.950806,181.338211 292.302734,183.942001 
	C285.485565,188.807678 282.840210,195.994858 282.796051,204.359909 
	C282.730164,216.841873 282.972351,229.373871 281.948486,241.791016 
	C280.416656,260.368622 260.589355,276.902740 242.375977,275.538452 
	C242.375977,271.635315 242.375977,267.719452 242.375977,264.705048 
	C247.910461,262.536011 252.927277,260.569855 258.243774,258.393066 
z"/>
<path fill="#F9F9F9" opacity="1.000000" stroke="none" 
	d="
M147.700241,206.689697 
	C141.963486,212.037903 136.322922,216.982300 131.077087,222.314987 
	C128.274399,225.164078 125.382446,226.412720 121.409790,226.080170 
	C117.509193,225.753632 113.559891,226.008987 108.113861,226.008987 
	C123.359886,212.113190 137.124176,198.671036 151.874878,186.416229 
	C163.045151,177.135986 182.235825,177.362549 193.375488,186.755249 
	C207.810394,198.926437 221.335770,212.176331 236.387985,226.004807 
	C229.655609,226.004807 224.421860,226.175766 219.212875,225.892197 
	C217.798676,225.815201 216.268356,224.573517 215.115875,223.513519 
	C206.666824,215.742355 198.315796,207.864746 189.904007,200.052841 
	C178.519440,189.480133 166.270050,189.475601 154.916916,200.000427 
	C152.598450,202.149734 150.279404,204.298431 147.700241,206.689697 
z"/>
<path fill="#F9F9F9" opacity="1.000000" stroke="none" 
	d="
M135.414459,133.591278 
	C142.216690,139.999908 148.736282,146.194534 155.319321,152.320969 
	C165.197235,161.513794 178.583191,161.799347 188.668747,152.775940 
	C196.982056,145.338135 205.137848,137.712662 213.111252,129.912552 
	C216.061722,127.026207 219.006256,125.515297 223.196640,125.915718 
	C226.971588,126.276451 230.808212,125.991806 234.617630,125.991806 
	C235.019989,126.427765 235.422348,126.863724 235.824707,127.299690 
	C234.534103,128.140305 233.089142,128.814667 231.976868,129.847336 
	C221.237411,139.818375 210.594589,149.893585 199.845032,159.853638 
	C182.599442,175.832642 161.700760,175.660141 144.578568,159.537781 
	C132.968170,148.605347 121.297585,137.736816 108.984543,126.213242 
	C119.061378,125.912582 128.645325,123.827026 135.414459,133.591278 
z"/>
</svg>